<svg xmlns="http://www.w3.org/2000/svg" viewBox="0 0 159.14 196.8"><defs><style>.cls-1{fill:#fff;}.cls-2{opacity:0.5;}</style></defs><title>rightRecurso 2</title><g id="Capa_2" data-name="Capa 2"><g id="Capa_1-2" data-name="Capa 1"><path class="cls-1" d="M62.1,196.8a9,9,0,0,1-6.37-15.36l81.68-81.68L53,15.36A9,9,0,1,1,65.74,2.64L156.51,93.4a9,9,0,0,1,0,12.72l-88,88A9,9,0,0,1,62.1,196.8Z"/><g class="cls-2"><path class="cls-1" d="M11.72,196.8a9,9,0,0,1-6.37-15.36L87,99.76,2.64,15.36A9,9,0,0,1,15.36,2.64L106.12,93.4a9,9,0,0,1,0,12.72l-88,88A9,9,0,0,1,11.72,196.8Z"/></g></g></g></svg>