<svg xmlns="http://www.w3.org/2000/svg" viewBox="0 0 159.14 196.8"><defs><style>.cls-1{fill:#fff;}.cls-2{opacity:0.5;}</style></defs><title>leftRecurso 1</title><g id="Capa_2" data-name="Capa 2"><g id="Capa_1-2" data-name="Capa 1"><path class="cls-1" d="M99.76,196.8a8.94,8.94,0,0,1-6.36-2.63L2.64,103.41a9,9,0,0,1,0-12.73l88-88a9,9,0,0,1,12.73,12.72L21.73,97l84.39,84.4a9,9,0,0,1-6.36,15.36Z"/><g class="cls-2"><path class="cls-1" d="M150.14,196.8a8.94,8.94,0,0,1-6.36-2.63L53,103.41a9,9,0,0,1,0-12.73l88-88a9,9,0,1,1,12.73,12.72L72.11,97l84.4,84.4a9,9,0,0,1-6.37,15.36Z"/></g></g></g></svg>